<svg width="231" height="359" viewBox="0 0 231 359" fill="none" xmlns="http://www.w3.org/2000/svg">
<rect y="98" width="231" height="183" rx="2" fill="#A7A7A7"/>
<rect x="22" y="280" width="187" height="24" rx="1" fill="#9E9E9E"/>
<path d="M34 297H46L31 359H17.5L34 297Z" fill="#9E9E9E"/>
<path d="M197 297H185L200 359H213.5L197 297Z" fill="#9E9E9E"/>
<rect x="40" y="123" width="151" height="132" rx="15" fill="#EDEDED"/>
<path d="M107.067 240.012L105.68 243.814L101.095 245.08L98.4283 245.044L95.0547 240.877L96.0112 237.832L100.665 234.393L102.423 234.097L106.371 235.083L107.067 240.012Z" fill="#6D6D6D"/>
<path d="M122.067 234.012L120.68 237.814L116.095 239.08L113.428 239.044L110.055 234.877L111.011 231.832L115.665 228.393L117.423 228.097L121.371 229.083L122.067 234.012Z" fill="#6D6D6D"/>
<path d="M111.175 241.577L107.548 243.372L103.355 241.124L101.45 239.259L101.884 233.915L104.677 232.371L110.419 233.093L111.896 234.091L114.072 237.53L111.175 241.577Z" fill="#777777"/>
<path d="M149.175 249.577L145.548 251.372L141.355 249.124L139.45 247.259L139.884 241.915L142.677 240.371L148.419 241.093L149.896 242.091L152.072 245.53L149.175 249.577Z" fill="#777777"/>
<path d="M116.175 246.577L112.548 248.372L108.355 246.124L106.45 244.259L106.884 238.915L109.677 237.371L115.419 238.093L116.896 239.091L119.072 242.53L116.175 246.577Z" fill="#858585"/>
<path d="M105.175 234.577L101.548 236.372L97.3554 234.124L95.4499 232.259L95.8838 226.915L98.6773 225.371L104.419 226.093L105.896 227.091L108.072 230.53L105.175 234.577Z" fill="#858585"/>
<path d="M82.0626 249.514L82.582 245.5L86.7776 243.258L89.3868 242.708L93.5926 246.034L93.3275 249.214L89.5417 253.591L87.8913 254.266L83.8236 254.169L82.0626 249.514Z" fill="#6D6D6D"/>
<path d="M105.063 249.514L105.582 245.5L109.778 243.258L112.387 242.708L116.593 246.034L116.327 249.214L112.542 253.591L110.891 254.266L106.824 254.169L105.063 249.514Z" fill="#6D6D6D"/>
<path d="M93.5558 246.088L96.9385 243.866L101.373 245.587L103.491 247.207L103.71 252.565L101.125 254.437L95.3382 254.418L93.7507 253.606L91.1728 250.458L93.5558 246.088Z" fill="#6D6D6D"/>
<path d="M118.556 238.088L121.939 235.866L126.373 237.587L128.491 239.207L128.71 244.565L126.125 246.437L120.338 246.418L118.751 245.606L116.173 242.458L118.556 238.088Z" fill="#6D6D6D"/>
<path d="M137.556 236.088L140.939 233.866L145.373 235.587L147.491 237.207L147.71 242.565L145.125 244.437L139.338 244.418L137.751 243.606L135.173 240.458L137.556 236.088Z" fill="#6D6D6D"/>
<path d="M135.49 246.658L138.326 243.769L143.024 244.513L145.437 245.647L146.786 250.837L144.656 253.214L138.997 254.421L137.273 253.964L134.087 251.433L135.49 246.658Z" fill="#6D6D6D"/>
<path d="M128.556 242.088L131.939 239.866L136.373 241.587L138.491 243.207L138.71 248.565L136.125 250.437L130.338 250.418L128.751 249.606L126.173 246.458L128.556 242.088Z" fill="#6D6D6D"/>
<path d="M115.556 245.088L118.939 242.866L123.373 244.587L125.491 246.207L125.71 251.565L123.125 253.437L117.338 253.418L115.751 252.606L113.173 249.458L115.556 245.088Z" fill="#6D6D6D"/>
<path d="M104.853 242L108.673 243.337L110 247.905L110 250.571L105.878 254L102.82 253.084L99.3196 248.476L99 246.722L99.9344 242.762L104.853 242Z" fill="#777777"/>
<path d="M121.612 248.506L119.743 252.096L115.033 252.757L112.393 252.377L109.589 247.807L110.932 244.912L115.992 242.105L117.774 242.039L121.56 243.529L121.612 248.506Z" fill="#777777"/>
<path d="M132.612 249.506L130.743 253.096L126.033 253.757L123.393 253.377L120.589 248.807L121.932 245.912L126.992 243.105L128.774 243.039L132.56 244.529L132.612 249.506Z" fill="#777777"/>
<path d="M136.73 236.051L140.742 236.58L142.974 240.78L143.519 243.391L140.184 247.589L137.004 247.317L132.636 243.521L131.964 241.869L132.07 237.802L136.73 236.051Z" fill="#777777"/>
<path d="M121.963 242.225L118.046 243.245L114.398 240.193L112.911 237.979L114.422 232.834L117.471 231.89L122.946 233.764L124.189 235.042L125.621 238.851L121.963 242.225Z" fill="#777777"/>
<path d="M121.963 231.225L118.046 232.245L114.398 229.193L112.911 226.979L114.422 221.834L117.471 220.89L122.946 222.764L124.189 224.042L125.621 227.851L121.963 231.225Z" fill="#777777"/>
<path d="M136.528 237.045L132.714 235.689L131.411 231.115L131.424 228.448L135.563 225.04L138.616 225.972L142.094 230.597L142.404 232.353L141.45 236.308L136.528 237.045Z" fill="#777777"/>
<path d="M83.7634 252.271L79.82 253.182L76.2574 250.03L74.8323 247.777L76.4843 242.676L79.558 241.816L84.9793 243.84L86.1869 245.151L87.5135 248.998L83.7634 252.271Z" fill="#777777"/>
<path d="M99.2798 241.831L101.293 245.343L99.3058 249.664L97.5603 251.68L92.1996 251.574L90.4878 248.88L90.8574 243.105L91.7641 241.57L95.0627 239.188L99.2798 241.831Z" fill="#777777"/>
<path d="M113.28 225.831L115.293 229.343L113.306 233.664L111.56 235.68L106.2 235.574L104.488 232.88L104.857 227.105L105.764 225.57L109.063 223.188L113.28 225.831Z" fill="#777777"/>
<path d="M87.853 235L91.6732 236.337L93 240.905L93 243.571L88.8777 247L85.8203 246.084L82.3196 241.476L82 239.722L82.9344 235.762L87.853 235Z" fill="#777777"/>
<path d="M99.2409 231.546L99.1941 235.594L95.2892 238.31L92.7622 239.161L88.1966 236.35L88.0882 233.16L91.3366 228.371L92.8969 227.508L96.948 227.129L99.2409 231.546Z" fill="#777777"/>
<path d="M127.427 245.653L126.804 248.569L123.582 249.966L121.629 250.215L118.733 247.524L119.119 245.204L122.168 242.216L123.423 241.819L126.41 242.131L127.427 245.653Z" fill="#858585"/>
<path d="M129.438 225.8L133.039 227.646L133.73 232.352L133.365 234.994L128.813 237.827L125.91 236.502L123.071 231.459L122.994 229.678L124.461 225.882L129.438 225.8Z" fill="#6D6D6D"/>
<path d="M148.313 247L146.841 249.593L143.348 249.955L141.411 249.605L139.459 246.167L140.525 244.071L144.332 242.139L145.648 242.138L148.403 243.335L148.313 247Z" fill="#858585"/>
<path d="M116.394 225.818L114.922 228.411L111.429 228.773L109.491 228.423L107.54 224.985L108.606 222.889L112.412 220.957L113.729 220.956L116.484 222.153L116.394 225.818Z" fill="#858585"/>
<path d="M139.205 238.026L136.63 239.529L133.428 238.087L131.928 236.811L131.968 232.858L133.942 231.581L138.204 231.823L139.343 232.483L141.124 234.902L139.205 238.026Z" fill="#858585"/>
<path d="M134.166 231.737L136.253 235.205L134.358 239.568L132.655 241.62L127.293 241.627L125.525 238.97L125.773 233.188L126.647 231.634L129.894 229.183L134.166 231.737Z" fill="#777777"/>
<path d="M150.23 253.86L146.231 253.235L144.101 248.982L143.619 246.359L147.055 242.242L150.227 242.591L154.502 246.491L155.134 248.158L154.93 252.222L150.23 253.86Z" fill="#777777"/>
<path d="M97.1727 241.455L94.6939 242.72L91.8884 241.255L90.6247 240.018L90.9913 236.393L92.9022 235.31L96.7767 235.72L97.7623 236.376L99.1876 238.675L97.1727 241.455Z" fill="#858585"/>
<path d="M127.536 236.167L125.107 237.358L121.743 235.627L120.106 234.233L119.735 230.402L121.585 229.369L125.888 230.045L127.1 230.803L129.139 233.335L127.536 236.167Z" fill="#858585"/>
<path d="M100 210C95.0001 229 103.628 236 97.0004 236C90.3729 236 89.5 223.74 89.5 208C89.5 192.26 97.0004 192.5 92 176C97.0002 183 104.5 197.5 100 210Z" fill="#DF7F49"/>
<path d="M106.383 205.5C111.383 224.5 102.755 231.5 109.383 231.5C116.01 231.5 121.383 218.74 121.383 203C121.383 187.26 115.617 196.5 111.5 174.5C106.5 181.5 101.883 193 106.383 205.5Z" fill="#D96330"/>
<path d="M108.76 207.211C110.84 220.211 107.251 225 110.008 225C112.765 225 115 216.27 115 205.5C115 194.73 112.713 196.553 111 181.5C108.92 186.289 106.889 198.658 108.76 207.211Z" fill="#D98130"/>
<path d="M136 205C131 224 139.627 231 133 231C126.373 231 121 218.24 121 202.5C121 186.76 131.5 188 123 164.5C128 171.5 140.5 192.5 136 205Z" fill="#D96330"/>
<path d="M112 204.5C112 219.688 120.634 232 113.179 232C105.723 232 99.6786 219.688 99.6786 204.5C99.6786 189.312 91.5441 155.5 99 155.5C94.5 173 112 189.312 112 204.5Z" fill="#E99044"/>
<path d="M122.945 211C122.945 223.979 119.363 234.5 114.945 234.5C110.527 234.5 111.945 234.979 111.945 222C111.945 209.021 120.949 192 114.5 164.5C113.5 154 122.945 198.021 122.945 211Z" fill="#DF7F49"/>
<path d="M106.724 223C106.724 230.732 111.419 235 106.724 235C102.03 235 95.7244 230.732 95.7244 223C95.7244 215.268 94.5 194 96.4999 190C98.7755 211.5 106.724 215.268 106.724 223Z" fill="#EB844A"/>
<path d="M133.5 215C133.5 222.732 128.194 233 123.5 233C118.805 233 121.5 224.232 121.5 216.5C121.5 208.768 127.5 207 132.5 168.5C134.5 181 134.5 185 133.5 215Z" fill="#EB844A"/>
<rect x="99" width="33" height="98" fill="#8D8C8C"/>
<path d="M57 98C57 89.5131 63.1634 81.3737 74.1343 75.3726C85.1051 69.3714 99.9848 66 115.5 66C131.015 66 145.895 69.3714 156.866 75.3726C167.837 81.3737 174 89.5131 174 98L115.5 98L57 98Z" fill="#9E9E9E"/>
<ellipse cx="84" cy="148.5" rx="12" ry="9.5" fill="#DFDFDF"/>
<ellipse cx="97" cy="142.5" rx="12" ry="9.5" fill="#D9D9D9"/>
<ellipse cx="114" cy="142.5" rx="12" ry="9.5" fill="#DFDFDF"/>
<path d="M138 131.5C138 136.747 132.627 141 126 141C119.373 141 114 136.747 114 131.5C114 126.253 119.373 123 126 123C132.627 123 138 126.253 138 131.5Z" fill="#DFDFDF"/>
<ellipse cx="111" cy="150.5" rx="12" ry="9.5" fill="#D9D9D9"/>
<ellipse cx="133" cy="156.5" rx="12" ry="9.5" fill="#DFDFDF"/>
<ellipse cx="144" cy="142.5" rx="12" ry="9.5" fill="#D9D9D9"/>
<path d="M116 123C116 124.248 115.69 125.983 115.087 127.135C114.483 128.288 113.6 129.335 112.485 130.218C111.371 131.1 110.048 131.799 108.592 132.277C107.136 132.754 105.576 133 104 133C102.424 133 100.864 132.754 99.4078 132.277C97.9519 131.799 96.629 131.1 95.5147 130.218C94.4004 129.335 93.5165 128.288 92.9134 127.135C92.3104 125.983 92 124.248 92 123H104H116Z" fill="#D9D9D9"/>
<path d="M143.278 203.5C143.278 218.688 139.587 231.5 132.131 231.5C124.675 231.5 130.956 218.688 130.956 203.5C141.631 186.5 136.278 178.5 134 158.5C139.5 164 143.278 188.312 143.278 203.5Z" fill="#E99044"/>
</svg>
