<svg width="569" height="350" viewBox="0 0 569 350" fill="none" xmlns="http://www.w3.org/2000/svg">
<circle cx="145" cy="205" r="145" fill="#4DC7FB"/>
<path d="M42.4564 148.296C41.3108 145.734 39.2574 143.487 36.8611 141.563C34.4614 139.637 31.6906 138.013 29.0716 136.706C26.451 135.398 23.971 134.4 22.1467 133.73C21.2342 133.395 20.4847 133.142 19.9625 132.972C19.8846 132.946 19.8118 132.923 19.7442 132.901C41.8048 94.6586 80.875 67.4661 126.616 61.6584C126.647 61.797 126.685 61.967 126.728 62.1657C126.858 62.7699 127.033 63.6388 127.215 64.6939C127.578 66.8059 127.962 69.656 128.054 72.6205C128.145 75.5912 127.941 78.6435 127.145 81.1753C126.351 83.7045 124.991 85.6487 122.811 86.537C119.718 87.7975 117.166 86.1289 114.323 84.1957C114.277 84.1643 114.231 84.1329 114.184 84.1014C111.474 82.257 108.481 80.2208 104.831 81.5294C102.48 82.3724 101.054 83.791 100.173 85.5666C99.3049 87.3159 98.9762 89.3912 98.7565 91.5319C98.6936 92.1444 98.6397 92.7613 98.5855 93.3806C98.4478 94.9558 98.3087 96.5465 98.0182 98.1198C97.6163 100.296 96.9325 102.377 95.5964 104.205C93.1808 107.509 89.8058 109.376 86.0049 110.567C82.7401 111.59 79.2014 112.104 75.7173 112.609C75.1302 112.694 74.5447 112.779 73.9623 112.866C69.9558 113.465 66.0832 114.169 63.0383 115.806C59.9532 117.464 57.7243 120.077 57.0067 124.418C56.1893 129.364 56.526 133.627 57.9264 137.586C59.3248 141.54 61.7727 145.159 65.1308 148.837C68.2569 152.261 71.7399 153.544 75.4495 153.635C79.1254 153.724 83.0128 152.642 86.9647 151.386C87.6433 151.17 88.324 150.95 89.0066 150.728C92.3262 149.651 95.6917 148.56 99.0933 147.972C103.18 147.267 107.272 147.299 111.31 148.962C128.684 156.118 143.253 164.627 144.501 183.034C145.052 191.157 141.926 196.684 137.475 201.943C135.942 203.755 134.265 205.52 132.525 207.351C131.725 208.193 130.912 209.049 130.094 209.929C127.507 212.713 124.895 215.717 122.583 219.225C117.582 226.811 113.124 236.709 108.848 246.863C107.813 249.321 106.789 251.794 105.77 254.254C102.572 261.975 99.4265 269.569 96.1665 276.178C91.8577 284.914 87.404 291.807 82.4671 294.997C80.0205 296.578 77.4732 297.237 74.7594 296.777C72.0324 296.313 69.0756 294.708 65.8444 291.638C60.8083 286.852 59.2951 281.691 59.6879 276.203C60.0836 270.673 62.4145 264.8 65.125 258.625C65.5355 257.69 65.9547 256.748 66.3766 255.8C68.7273 250.516 71.1633 245.041 72.6692 239.475C74.4492 232.895 74.9463 226.136 72.4699 219.329C68.9935 209.773 61.7185 204.355 54.8028 199.204C54.2767 198.812 53.7528 198.422 53.2327 198.031C45.8453 192.486 39.2267 186.906 37.9966 176.442C37.4287 171.611 39.1602 167.602 40.8807 163.62C41.0617 163.2 41.2427 162.782 41.4208 162.362C43.278 157.988 44.81 153.559 42.4564 148.296ZM289.5 205C289.5 241.128 276.242 274.158 254.326 299.493C254.191 299.488 254.001 299.479 253.761 299.467C253.243 299.441 252.495 299.395 251.573 299.316C249.727 299.158 247.19 298.869 244.423 298.346C238.855 297.293 232.481 295.313 228.855 291.648C226.146 288.909 224.805 286.054 224.301 283.069C223.794 280.07 224.128 276.913 224.819 273.565C225.231 271.568 225.759 269.542 226.305 267.451C226.68 266.013 227.064 264.545 227.422 263.035C228.295 259.36 229 255.511 229 251.5C229 244.553 230.251 238.364 231.445 232.454C231.954 229.935 232.452 227.466 232.84 225.012C234.131 216.826 234.141 208.92 228.929 200.243C223.793 191.693 216.564 188.575 208.748 186.127C207.451 185.721 206.14 185.334 204.82 184.943C198.162 182.975 191.266 180.937 184.799 176.1C180.994 173.253 177.215 170.82 173.622 168.507L173.239 168.26C169.526 165.87 166.025 163.6 162.875 161.107C156.592 156.133 151.723 150.284 149.486 140.884C147.828 133.915 147.633 128.047 148.686 122.349C149.74 116.646 152.05 111.085 155.441 104.736C158.18 99.6069 162.788 95.1508 168.198 91.3481C173.605 87.5478 179.784 84.4197 185.63 81.9369C191.474 79.4549 196.972 77.6227 201.01 76.411C203.028 75.8053 204.681 75.3549 205.828 75.0562C206.401 74.9068 206.848 74.7954 207.152 74.7214C207.272 74.6921 207.369 74.6687 207.443 74.6511C255.986 97.9476 289.5 147.56 289.5 205Z" fill="#13C71A" stroke="#13C71A"/>
<path d="M163.295 55L205.794 66.3936L204 72.5L162 61L163.295 55Z" fill="#6B6868"/>
<path d="M525.649 126L565.655 144.316L562.869 150.038L523.372 131.7L525.649 126Z" fill="#6B6868"/>
<rect x="174.866" y="31.7094" width="34.7147" height="26.5128" transform="rotate(15.01 174.866 31.7094)" fill="#6B6868"/>
<rect x="527.688" y="132.308" width="34.7147" height="26.5128" transform="rotate(24.6041 527.688 132.308)" fill="#6B6868"/>
<path d="M196 17C190.161 21.6449 189 26 189 26L196.5 28C196.5 28 197.792 24.6199 202.5 21C208.384 16.4756 216.474 13.8929 223.5 11.5C235.75 7.32831 245.097 9.01822 258 9.99996C274.02 11.2188 296.5 26.5 296.5 26.5L316.5 44.5C316.5 44.5 339.393 69.6878 350 88.5C362.078 109.92 365.06 123.909 372 147.5C381.262 178.984 377.166 199.021 388 230C392.794 243.708 401.755 262.135 406.262 271.12C408.068 274.721 410.136 278.173 412.609 281.353C413.858 282.958 415.256 284.672 416.5 286C421.817 291.675 425.138 294.842 432 298.5C439.196 302.336 443.921 303.393 452 304.5C464.05 306.152 471.529 305.542 483 301.5C493.678 297.737 499.894 294.387 507.5 286C517.025 275.497 518.018 266.245 521.5 252.5C525.207 237.865 523.961 229.09 523.5 214C523.291 207.144 523.044 203.344 523.5 196.5C524.149 186.758 530.5 172.5 530.5 172.5L523.5 169C523.5 169 519.669 179.225 518 186C512.816 207.049 519.5 223 517 242.5C513.642 268.694 500.73 289.551 475 295.5C455.711 299.96 440.242 295.251 426 281.5C411.5 267.5 406.848 252.478 398.5 232C385.862 201 391.507 176.828 381 143C373.202 117.895 369.5 103.057 356 80.5C346.413 64.482 327 42.5 327 42.5C327 42.5 311.876 26.1153 300 18.5C285.166 8.98738 276.147 3.21407 258 1.99996C243.924 1.05822 232.424 0.660479 219 5C209.61 8.03541 203.722 10.8566 196 17Z" fill="black" stroke="black"/>
<rect x="544.407" y="109" width="5" height="23.3126" transform="rotate(24.6 544.407 109)" fill="#FCBE1D"/>
<rect x="561.407" y="117" width="5" height="23.0821" transform="rotate(24.6 561.407 117)" fill="#FCBE1D"/>
<rect x="184.434" y="24.719" width="19.9424" height="9.39693" transform="rotate(15.01 184.434 24.719)" fill="#6B6868"/>
<rect x="522.912" y="159" width="19.9424" height="9.39693" transform="rotate(24.6 522.912 159)" fill="#6B6868"/>
<path d="M561.968 74.9326L556.754 94.0062L553.155 94.5003L561.968 74.9326Z" fill="#FCBE1D"/>
<path d="M566.139 95.0062L553 94.5062L554.502 91.5062L566.139 95.0062Z" fill="#FCBE1D"/>
<path d="M557.908 110.849L564.29 92.4152L567.907 92.3196L557.908 110.849Z" fill="#FCBE1D"/>
<path d="M555.627 92.0062L568.062 92.3308L566.379 95.155L555.627 92.0062Z" fill="#FCBE1D"/>
</svg>
