<svg width="94" height="105" viewBox="0 0 94 105" fill="none" xmlns="http://www.w3.org/2000/svg">
<path d="M50.3093 96.75V51.8215C52.2794 51.0492 53.9814 49.6055 55.174 47.6952L83.6108 56.1875L85.325 49.0632L56.8485 40.5636C56.667 38.0234 55.7002 35.6321 54.113 33.7976C52.5258 31.9631 50.4165 30.7991 48.1451 30.5041L41.0235 0.875L34.6299 2.78881L41.6853 32.1266C39.6287 33.555 38.1204 35.7825 37.4523 38.3783C36.7842 40.9741 37.0037 43.7537 38.0683 46.1796L17.2164 69.4109L21.899 74.625L42.7476 51.3937C43.055 51.5536 43.3699 51.6952 43.6908 51.8178V96.75H0.669922V104.125H93.3302V96.75H50.3093ZM50.3093 41.4375C50.3093 42.1668 50.1153 42.8798 49.7516 43.4862C49.388 44.0926 48.8712 44.5652 48.2665 44.8443C47.6618 45.1234 46.9964 45.1964 46.3544 45.0541C45.7125 44.9119 45.1228 44.5607 44.66 44.045C44.1972 43.5293 43.882 42.8722 43.7543 42.1569C43.6267 41.4416 43.6922 40.7002 43.9427 40.0264C44.1931 39.3526 44.6173 38.7766 45.1615 38.3715C45.7057 37.9663 46.3455 37.75 47.0001 37.75C47.8777 37.75 48.7195 38.1385 49.3401 38.83C49.9607 39.5216 50.3093 40.4595 50.3093 41.4375Z" fill="black"/>
</svg>
